<?xml version="1.0" encoding="utf-8"?>
<!-- Generator: Adobe Illustrator 21.1.0, SVG Export Plug-In . SVG Version: 6.00 Build 0)  -->
<svg version="1.1" id="Layer_1" xmlns="http://www.w3.org/2000/svg" xmlns:xlink="http://www.w3.org/1999/xlink" x="0px" y="0px"
	 viewBox="0 0 600 800" style="enable-background:new 0 0 600 800;" xml:space="preserve">
<style type="text/css">
	.st0{opacity:0.6;}
	.st1{fill:#EAEAEA;}
	.st2{fill:none;}
	.st3{fill:#FCFCFC;}
	.st4{font-family:'ShreeDev0714';}
	.st5{font-size:36px;}
</style>
<image style="overflow:visible;enable-background:new    ;" width="1035" height="705" xlink:href="5CEBDA3D157748A8.jpg"  transform="matrix(1.1814 0 0 1.1814 -232.851 0)">
</image>
<g class="st0">
	
		<image style="overflow:visible;opacity:0.35;enable-background:new    ;" width="372" height="217" xlink:href="5CEBDA3D157748A8.png"  transform="matrix(0.9973 0 0 0.9954 121.708 162.001)">
	</image>
	<g>
		<g>
			<path class="st1" d="M135.5,175.5H157l21.2,31.2l21.1-31.2h21.5v81.4h-26v-29.3L178.2,252l-16.7-24.4v29.3h-26V175.5z
				 M150.9,247.1v-56l27.3,39.8l27.2-39.8v56h3.2v-61.9h-3.2l-27.2,40.1l-27.3-40.1h-3.2v61.9H150.9z"/>
			<path class="st1" d="M253.5,175.5H273l30.9,81.4h-25.6l-2.7-7.3H251l-2.7,7.3h-25.6L253.5,175.5z M240.8,247.1l2.3-6.1h40.3
				l2.3,6.1h3.4l-23.5-61.9H261l-23.5,61.9H240.8z M263.2,188.2l19,49.9h-38.1L263.2,188.2z M268.7,231.6l-5.5-14.3l-5.5,14.3H268.7
				z"/>
			<path class="st1" d="M328.2,214.8l-21.6-39.3H335l7.3,13.3l7.3-13.3h28.5l-21.6,39.3l23.2,42.1h-28.4l-9-16.2l-8.9,16.2H305
				L328.2,214.8z M342.4,218.1l16,29h3.7l-17.8-32.3l16.2-29.5h-3.7l-14.4,26.2L328,185.3h-3.7l16.2,29.5l-17.8,32.3h3.7
				L342.4,218.1z"/>
			<path class="st1" d="M203,302.5c-2.2-5.1-5.3-9.3-9.4-12.7c-4.1-3.4-9.1-6-15.1-7.7s-12.8-2.6-20.4-2.6h-22.6v34.6
				c2.6,0.2,4.8,1.3,7.1,2.4c1.9,0.8,3.5,1.7,5.1,2.8v-30H158c11.9,0,20.8,2.7,26.9,8.1c6.1,5.4,9.1,13,9.1,22.8s-3,17.5-9.1,22.9
				c-1.5,1.4-3.2,2.6-5.1,3.6c2.5,2.6,5,5.3,6.9,8.4c2.5-1.3,4.8-2.8,6.9-4.5c4.1-3.4,7.2-7.7,9.4-12.7c2.2-5.1,3.2-11,3.2-17.6
				C206.2,313.5,205.2,307.6,203,302.5z"/>
			<path class="st1" d="M157.9,325.6c1.3,0.9,2.5,1.8,3.6,2.9v-25.8c6.1,0,10.8,1.4,14.2,4.3c3.3,2.8,5,7.2,5,13.2
				c0,5.9-1.7,10.4-5,13.2c-1.5,1.3-3.3,2.3-5.3,3c2.8,2.1,5,5,7.3,7.7c1.6-0.9,3.2-1.9,4.5-3c5.7-4.7,8.6-11.7,8.6-21
				s-2.9-16.2-8.6-20.9c-5.7-4.7-13.8-7-24.1-7h-7.2v28.9h0.1C153.4,321.8,155.7,324.1,157.9,325.6z"/>
			<path class="st1" d="M212.9,279.5H241c5.2,0,10,0.7,14.5,2.1c4.4,1.4,8.3,3.4,11.5,6.1c3.3,2.7,5.8,6,7.6,9.9
				c1.8,3.9,2.7,8.5,2.7,13.6c0,4.1-0.6,7.5-1.7,10.4c-1.1,2.8-2.4,5.2-3.8,7.1c-1.6,2.1-3.5,3.9-5.5,5.4l15.2,26.8H251l-12.2-20.6
				v20.6h-26L212.9,279.5L212.9,279.5z M238.3,332.6c3.2,0,6.3-0.3,9.3-1l11.6,19.5h3.8l-12.2-20.5c4.4-1.5,7.9-3.9,10.5-7.1
				s3.9-7.4,3.9-12.5c0-3.6-0.7-6.7-2.1-9.4c-1.4-2.7-3.3-4.9-5.7-6.8c-2.4-1.8-5.2-3.2-8.5-4.1s-6.8-1.4-10.6-1.4h-13.2v61.9h3.2
				v-18.5h10V332.6z M228.3,329.6v-37.5h10c7.4,0,13.2,1.6,17.4,4.9c4.2,3.3,6.3,7.9,6.3,13.9s-2.1,10.6-6.3,13.8
				c-4.2,3.2-10,4.8-17.4,4.8h-10V329.6z M238.9,319.5h1.3c3.1,0,5.7-0.7,7.9-2.1c2.2-1.4,3.2-3.7,3.2-7s-1.1-5.6-3.2-7
				c-2.2-1.4-4.8-2.1-7.9-2.1h-1.3V319.5z"/>
			<path class="st1" d="M297.1,325.9l-25.3-46.4h28.9l9.4,17.2l9.3-17.2h28.9L323,325.9v35h-26v-35H297.1z M311.8,351.1V322
				l17.8-32.7h-3.8l-15.6,28.9l-15.7-28.9h-3.7l17.7,32.7v29.2h3.3V351.1z"/>
			<path class="st1" d="M350.2,279.5h47.9v21.4h-22v9h21.6v20.3h-21.6v9.4H399V361h-48.8V279.5z M390,351.1v-2.9h-24.4v-26.7h23.2
				v-2.9h-23.2v-26.4H390v-2.9h-27.6v61.9H390V351.1z"/>
			<path class="st1" d="M406.3,279.5h28.1c5.2,0,10,0.7,14.5,2.1c4.4,1.4,8.3,3.4,11.5,6.1c3.3,2.7,5.8,6,7.6,9.9
				c1.8,3.9,2.7,8.5,2.7,13.6c0,4.1-0.6,7.5-1.7,10.4c-1.1,2.8-2.4,5.2-3.8,7.1c-1.6,2.1-3.5,3.9-5.5,5.4l15.2,26.8h-30.5
				l-12.2-20.6v20.6h-26L406.3,279.5L406.3,279.5z M431.7,332.6c3.2,0,6.3-0.3,9.3-1l11.6,19.5h3.8l-12.2-20.5
				c4.4-1.5,7.9-3.9,10.5-7.1s3.9-7.4,3.9-12.5c0-3.6-0.7-6.7-2.1-9.4c-1.4-2.7-3.3-4.9-5.7-6.8c-2.4-1.8-5.2-3.2-8.5-4.1
				s-6.8-1.4-10.6-1.4h-13.2v61.9h3.2v-18.5h10V332.6z M421.7,329.6v-37.5h10c7.4,0,13.2,1.6,17.4,4.9c4.2,3.3,6.3,7.9,6.3,13.9
				s-2.1,10.6-6.3,13.8c-4.2,3.2-10,4.8-17.4,4.8h-10V329.6z M432.3,319.5h1.3c3.1,0,5.7-0.7,7.9-2.1c2.2-1.4,3.2-3.7,3.2-7
				s-1.1-5.6-3.2-7c-2.2-1.4-4.8-2.1-7.9-2.1h-1.3V319.5z"/>
		</g>
	</g>
</g>
<g>
	
		<image style="overflow:visible;opacity:0.5;enable-background:new    ;" width="284" height="136" xlink:href="5CEBDA3D157748AF.png"  transform="matrix(1 0 0 1 220 353)">
	</image>
	<g>
		<rect x="232.2" y="370.5" class="st2" width="253.7" height="100.5"/>
		<text transform="matrix(1 0 0 1 232.2437 397.0157)" class="st3 st4 st5">web developer</text>
	</g>
</g>
</svg>
